<?xml version="1.0" encoding="UTF-8" standalone="no"?>
<!-- Created with Inkscape (http://www.inkscape.org/) -->

<svg
   width="121.18098mm"
   height="35.097305mm"
   viewBox="0 0 121.18098 35.097305"
   version="1.1"
   id="svg5"
   inkscape:version="1.2.2 (732a01da63, 2022-12-09)"
   sodipodi:docname="firstplaceholder.svg"
   xmlns:inkscape="http://www.inkscape.org/namespaces/inkscape"
   xmlns:sodipodi="http://sodipodi.sourceforge.net/DTD/sodipodi-0.dtd"
   xmlns="http://www.w3.org/2000/svg"
   xmlns:svg="http://www.w3.org/2000/svg">
  <sodipodi:namedview
     id="namedview7"
     pagecolor="#ffffff"
     bordercolor="#000000"
     borderopacity="0.25"
     inkscape:showpageshadow="2"
     inkscape:pageopacity="0.0"
     inkscape:pagecheckerboard="0"
     inkscape:deskcolor="#d1d1d1"
     inkscape:document-units="mm"
     showgrid="false"
     inkscape:zoom="2.0888418"
     inkscape:cx="223.3295"
     inkscape:cy="17.234431"
     inkscape:window-width="1920"
     inkscape:window-height="1009"
     inkscape:window-x="1912"
     inkscape:window-y="-8"
     inkscape:window-maximized="1"
     inkscape:current-layer="layer2" />
  <defs
     id="defs2" />
  <g
     inkscape:label="Layer 1"
     inkscape:groupmode="layer"
     id="layer1"
     transform="translate(-2.7456155,-76.954544)" />
  <rect
     style="display:inline;fill:#141414;fill-opacity:1;stroke:none;stroke-width:1.35736;stroke-miterlimit:8.6"
     id="rect235"
     width="121.18098"
     height="35.097305"
     x="0"
     y="-35.097305"
     transform="scale(1,-1)" />
  <g
     inkscape:groupmode="layer"
     id="layer3"
     inkscape:label="Layer 3"
     transform="translate(-2.7456155,-76.954544)" />
  <rect
     style="font-size:4.58611px;font-family:'VCR OSD Mono';-inkscape-font-specification:'VCR OSD Mono, Normal';text-align:center;text-anchor:middle;display:inline;fill:#c0c0c0;fill-opacity:1;stroke:#c0c0c0;stroke-width:0;stroke-miterlimit:8.6;stroke-dasharray:none;stroke-dashoffset:0;stroke-opacity:1"
     id="rect4325"
     width="110.19862"
     height="6.4599195"
     x="4.85429"
     y="20.577576" />
  <g
     inkscape:groupmode="layer"
     id="layer2"
     inkscape:label="Layer 2"
     transform="translate(-2.7456155,-76.954544)">
    <g
       aria-label="Vector Modular

Open-Source VCV Rack Modules Coming Soon"
       id="text1836"
       style="font-size:4.58611px;font-family:'VCR OSD Mono';-inkscape-font-specification:'VCR OSD Mono, Normal';text-align:center;text-anchor:middle;display:inline;fill:#c0c0c0;stroke:#c0c0c0;stroke-width:0;stroke-miterlimit:8.6">
      <path
         d="m 33.364783,88.683063 h -0.37896 v -3.789604 h 0.757921 v 3.410644 h 0.37896 v 0.37896 h 0.37896 v 0.378961 h 0.757921 v -0.378961 h 0.378961 v -0.37896 h 0.37896 v -3.410644 h 0.757921 v 3.789604 h -0.37896 v 0.378961 h -0.378961 v 0.37896 h -0.37896 v 0.378961 h -0.378961 v 0.37896 h -0.757921 v -0.37896 h -0.37896 v -0.378961 h -0.37896 v -0.37896 h -0.378961 z"
         style="font-size:7.76111px;display:inline"
         id="path4523" />
      <path
         d="m 38.291269,87.167222 v 0.37896 h 2.273763 v -0.37896 h -0.378961 v -0.378961 h -1.515842 v 0.378961 z m 3.031683,1.894802 v 0.37896 h -0.37896 v 0.378961 h -0.37896 v 0.37896 h -2.273763 v -0.37896 h -0.37896 v -0.378961 h -0.378961 v -2.652723 h 0.378961 v -0.37896 h 0.37896 V 86.03034 h 2.273763 v 0.378961 h 0.37896 v 0.37896 h 0.37896 v 1.136882 h -0.37896 v 0.37896 h -2.652723 v 0.757921 h 0.37896 v 0.37896 h 1.515842 v -0.37896 z"
         style="font-size:7.76111px;display:inline"
         id="path4525" />
      <path
         d="m 45.112557,89.062024 v -0.378961 h 0.757921 v 0.757921 h -0.378961 v 0.378961 h -0.37896 v 0.37896 h -2.273763 v -0.37896 h -0.37896 v -0.378961 h -0.378961 v -2.652723 h 0.378961 v -0.37896 h 0.37896 V 86.03034 h 2.273763 v 0.378961 h 0.37896 v 0.37896 h 0.378961 v 0.757921 h -0.757921 v -0.37896 h -0.37896 v -0.378961 h -1.515842 v 0.378961 h -0.378961 v 1.894802 h 0.378961 v 0.37896 h 1.515842 v -0.37896 z"
         style="font-size:7.76111px;letter-spacing:-0.955146px"
         id="path4527" />
      <path
         d="m 48.325976,89.440984 h 0.378961 v 0.757921 h -0.757921 v -0.37896 h -0.378961 v -0.378961 h -0.37896 V 86.788261 H 46.431174 V 86.03034 h 0.757921 v -1.136881 h 0.757921 v 1.136881 h 0.757921 v 0.757921 h -0.757921 v 2.273763 h 0.37896 z"
         style="font-size:7.76111px;letter-spacing:-0.301625px"
         id="path4529" />
      <path
         d="m 51.056035,89.440984 h 1.515841 v -0.37896 h 0.378961 v -1.894802 h -0.378961 v -0.378961 h -1.515841 v 0.378961 h -0.378961 v 1.894802 h 0.378961 z m -0.378961,0.757921 v -0.37896 h -0.37896 v -0.378961 h -0.378961 v -2.652723 h 0.378961 v -0.37896 h 0.37896 V 86.03034 h 2.273763 v 0.378961 h 0.37896 v 0.37896 h 0.378961 v 2.652723 h -0.378961 v 0.378961 h -0.37896 v 0.37896 z"
         style="font-size:7.76111px;display:inline"
         id="path4531" />
      <path
         d="m 55.224599,87.925143 v 2.273762 h -0.75792 V 86.03034 h 0.75792 v 0.757921 h 0.378961 v -0.37896 h 0.37896 V 86.03034 h 1.515842 v 0.378961 h 0.378961 v 0.37896 h 0.37896 v 0.757921 h -0.757921 v -0.37896 h -0.37896 v -0.378961 h -0.757921 v 0.378961 H 55.98252 v 0.37896 h -0.37896 v 0.378961 z"
         style="font-size:7.76111px;display:inline"
         id="path4533" />
      <path
         d="m 64.31965,90.198905 h -0.757921 v -5.305446 h 0.757921 v 0.757921 h 0.378961 v 0.37896 h 0.37896 v 0.378961 h 0.757921 V 86.03034 h 0.378961 v -0.37896 h 0.37896 v -0.757921 h 0.757921 v 5.305446 h -0.757921 v -3.410644 h -0.37896 v 0.378961 h -0.378961 v 0.757921 h -0.757921 v -0.757921 h -0.37896 V 86.788261 H 64.31965 Z"
         style="font-size:7.76111px;display:inline"
         id="path4535" />
      <path
         d="m 69.246136,89.440984 h 1.515842 v -0.37896 h 0.37896 v -1.894802 h -0.37896 v -0.378961 h -1.515842 v 0.378961 h -0.37896 v 1.894802 h 0.37896 z m -0.37896,0.757921 v -0.37896 h -0.378961 v -0.378961 h -0.37896 v -2.652723 h 0.37896 v -0.37896 h 0.378961 V 86.03034 h 2.273762 v 0.378961 h 0.378961 v 0.37896 h 0.37896 v 2.652723 h -0.37896 v 0.378961 h -0.378961 v 0.37896 z"
         style="font-size:7.76111px;display:inline"
         id="path4537" />
      <path
         d="m 75.688466,86.788261 v -1.894802 h 0.757921 v 5.305446 h -0.757921 v -0.757921 h -0.378961 v 0.378961 h -0.37896 v 0.37896 h -1.136882 v -0.37896 h -0.37896 v -0.378961 h -0.37896 v -0.37896 h -0.378961 v -1.894802 h 0.378961 v -0.378961 h 0.37896 v -0.37896 h 0.37896 V 86.03034 h 1.136882 v 0.378961 h 0.37896 v 0.37896 z m -1.894803,2.273763 h 0.378961 v 0.37896 h 0.37896 v -0.37896 h 0.378961 v -0.378961 h 0.37896 v -1.136881 h -0.37896 v -0.37896 h -0.378961 v -0.378961 h -0.37896 v 0.378961 h -0.378961 v 0.37896 h -0.37896 v 1.136881 h 0.37896 z"
         style="font-size:7.76111px;letter-spacing:0.254px"
         id="path4539" />
      <path
         d="m 77.458307,86.03034 h 0.757921 v 3.031684 h 0.378961 v 0.37896 h 1.515841 v -0.37896 h 0.378961 V 86.03034 h 0.757921 v 3.410644 h -0.378961 v 0.378961 h -0.37896 v 0.37896 h -2.273763 v -0.37896 h -0.37896 v -0.378961 h -0.378961 z"
         style="font-size:7.76111px;letter-spacing:-1.12713px"
         id="path4541" />
      <path
         d="m 83.152465,84.893459 v 5.305446 h -0.757921 v -5.305446 z"
         style="font-size:7.76111px;letter-spacing:-1.12713px"
         id="path4543" />
      <path
         d="m 85.435978,89.440984 h 1.515842 v -0.37896 h 0.378961 V 88.304103 H 86.95182 v -0.37896 h -1.515842 v 0.37896 h -0.37896 v 0.757921 h 0.37896 z m -0.37896,0.757921 v -0.37896 h -0.378961 v -0.378961 h -0.37896 v -1.515841 h 0.37896 v -0.378961 h 0.378961 v -0.37896 h 1.894802 v 0.37896 h 0.378961 V 86.788261 H 86.95182 v -0.37896 H 85.057018 V 85.65138 h 2.273763 v 0.37896 h 0.37896 v 0.378961 h 0.37896 v 3.789604 h -0.75792 v -0.37896 H 86.95182 v 0.37896 z"
         style="font-size:7.76111px;display:inline"
         id="path4545" />
      <path
         d="m 89.604541,87.925143 v 2.273762 h -0.75792 V 86.03034 h 0.75792 v 0.757921 h 0.378961 v -0.37896 h 0.37896 V 86.03034 h 1.515842 v 0.378961 h 0.378961 v 0.37896 h 0.37896 v 0.757921 h -0.757921 v -0.37896 h -0.37896 v -0.378961 h -0.757921 v 0.378961 h -0.378961 v 0.37896 h -0.37896 v 0.378961 z"
         style="font-size:7.76111px;display:inline"
         id="path4547" />
      <path
         d="M 10.858995,99.528911 H 9.9632704 v 0.223931 H 9.7393393 v 1.791448 h 0.2239311 v 0.22393 h 0.8957246 v -0.22393 h 0.223931 V 99.752842 H 10.858995 Z M 9.7393393,99.30498 v -0.223932 h 1.3435867 v 0.223932 h 0.223931 v 0.223931 h 0.223932 v 2.239309 h -0.223932 v 0.22393 h -0.223931 v 0.22393 H 9.7393393 v -0.22393 H 9.5154081 v -0.22393 H 9.291477 V 99.528911 H 9.5154081 V 99.30498 Z"
         style="display:inline;fill:#141414;stroke:#141440"
         id="path4549" />
      <path
         d="m 13.7701,100.2007 h -0.223931 v -0.223927 h -0.671794 v 0.223927 h -0.223931 v 0.6718 h 0.223931 v 0.22393 h 0.671794 V 100.8725 H 13.7701 Z m -1.343587,1.11966 v 0.89572 h -0.447862 v -2.687169 h 0.447862 v 0.223931 h 0.223931 V 99.528911 H 13.7701 v 0.223931 h 0.223931 v 0.223931 h 0.223931 v 1.119657 h -0.223931 v 0.22393 H 13.7701 v 0.22393 h -1.119656 v -0.22393 z"
         style="display:inline;fill:#141414;stroke:#141440"
         id="path4551" />
      <path
         d="m 15.113687,100.42464 v 0.22393 h 1.343587 v -0.22393 h -0.223931 v -0.22394 h -0.895725 v 0.22394 z m 1.791449,1.11965 v 0.22393 h -0.223931 v 0.22393 h -0.223931 v 0.22393 h -1.343587 v -0.22393 h -0.223931 v -0.22393 h -0.223931 v -1.56752 h 0.223931 v -0.223927 h 0.223931 v -0.223931 h 1.343587 v 0.223931 h 0.223931 v 0.223927 h 0.223931 v 0.6718 h -0.223931 v 0.22393 h -1.567518 v 0.44786 h 0.223931 v 0.22393 h 0.895725 v -0.22393 z"
         style="display:inline;fill:#141414;stroke:#141440"
         id="path4553" />
      <path
         d="m 17.800861,100.42464 v 1.79144 h -0.447863 v -2.463238 h 0.447863 v 0.223931 h 0.223931 v -0.223931 h 1.119656 v 0.223931 h 0.223931 v 0.223927 h 0.223931 v 2.01538 h -0.447862 v -1.79144 h -0.223931 v -0.22394 h -0.895725 v 0.22394 z"
         style="display:inline;fill:#141414;stroke:#141440"
         id="path4555" />
      <path
         d="m 22.055553,100.42464 v 0.44786 h -1.79145 v -0.44786 z"
         style="display:inline;fill:#141414;stroke:#141440"
         id="path4557" />
      <path
         d="m 24.742727,99.528911 h 0.223931 v 0.447862 H 24.518795 V 99.752842 H 24.294864 V 99.528911 H 23.39914 v 0.223931 h -0.223932 v 0.447858 h 0.223932 v 0.22394 h 1.119655 v 0.22393 h 0.223932 v 0.22393 h 0.223931 v 0.89572 h -0.223931 v 0.22393 h -0.223932 v 0.22393 h -1.343587 v -0.22393 h -0.223931 v -0.22393 h -0.223931 v -0.44786 h 0.447862 v 0.22393 h 0.223932 v 0.22393 h 0.895724 v -0.22393 h 0.223931 v -0.44786 h -0.223931 v -0.22393 h -1.119656 v -0.22393 h -0.223931 v -0.22393 h -0.223931 v -0.895729 h 0.223931 V 99.30498 h 0.223931 v -0.223932 h 1.343587 v 0.223932 h 0.223932 z"
         style="display:inline;fill:#141414;stroke:#141440"
         id="path4559" />
      <path
         d="m 26.086313,101.76822 h 0.895725 v -0.22393 h 0.223931 v -1.11965 h -0.223931 v -0.22394 h -0.895725 v 0.22394 h -0.223931 v 1.11965 h 0.223931 z m -0.223931,0.44786 v -0.22393 h -0.223931 v -0.22393 H 25.41452 v -1.56752 h 0.223931 v -0.223927 h 0.223931 v -0.223931 h 1.343587 v 0.223931 H 27.4299 v 0.223927 h 0.223932 v 1.56752 H 27.4299 v 0.22393 h -0.223931 v 0.22393 z"
         style="display:inline;fill:#141414;stroke:#141440"
         id="path4561" />
      <path
         d="m 28.101694,99.752842 h 0.447862 v 1.791448 h 0.223931 v 0.22393 h 0.895725 v -0.22393 h 0.223931 v -1.791448 h 0.447862 v 2.015378 h -0.223931 v 0.22393 h -0.223931 v 0.22393 h -1.343587 v -0.22393 h -0.223931 v -0.22393 h -0.223931 z"
         style="display:inline;fill:#141414;stroke:#141440"
         id="path4563" />
      <path
         d="m 31.23673,100.8725 v 1.34358 h -0.447862 v -2.463238 h 0.447862 v 0.447858 h 0.223931 v -0.223927 h 0.223931 v -0.223931 h 0.895725 v 0.223931 h 0.223931 v 0.223927 h 0.223931 v 0.44787 h -0.447862 v -0.22393 h -0.223931 v -0.22394 h -0.447863 v 0.22394 h -0.223931 v 0.22393 h -0.223931 v 0.22393 z"
         style="display:inline;fill:#141414;stroke:#141440"
         id="path4565" />
      <path
         d="m 35.267491,101.54429 v -0.22393 h 0.447862 v 0.44786 h -0.223931 v 0.22393 h -0.223931 v 0.22393 h -1.343587 v -0.22393 h -0.223931 v -0.22393 h -0.223931 v -1.56752 h 0.223931 v -0.223927 h 0.223931 v -0.223931 h 1.343587 v 0.223931 h 0.223931 v 0.223927 h 0.223931 v 0.44787 h -0.447862 v -0.22393 H 35.04356 v -0.22394 h -0.895725 v 0.22394 h -0.223931 v 1.11965 h 0.223931 v 0.22393 h 0.895725 v -0.22393 z"
         style="display:inline;fill:#141414;stroke:#141440"
         id="path4567" />
      <path
         d="m 36.611078,100.42464 v 0.22393 h 1.343587 v -0.22393 h -0.223932 v -0.22394 h -0.895724 v 0.22394 z m 1.791449,1.11965 v 0.22393 h -0.223931 v 0.22393 h -0.223931 v 0.22393 h -1.343587 v -0.22393 h -0.223931 v -0.22393 h -0.223932 v -1.56752 h 0.223932 v -0.223927 h 0.223931 v -0.223931 h 1.343587 v 0.223931 h 0.223931 v 0.223927 h 0.223931 v 0.6718 h -0.223931 v 0.22393 h -1.567518 v 0.44786 h 0.223931 v 0.22393 h 0.895724 v -0.22393 z"
         style="display:inline;fill:#141414;stroke:#141440"
         id="path4569" />
      <path
         d="m 41.761494,101.32036 h -0.223931 v -2.239312 h 0.447862 v 2.015382 h 0.223932 v 0.22393 h 0.223931 v 0.22393 h 0.447862 v -0.22393 h 0.223931 v -0.22393 h 0.223931 v -2.015382 h 0.447863 v 2.239312 h -0.223931 v 0.22393 h -0.223932 v 0.22393 h -0.223931 v 0.22393 H 42.88115 v 0.22393 h -0.447862 v -0.22393 h -0.223931 v -0.22393 h -0.223932 v -0.22393 h -0.223931 z"
         style="display:inline;fill:#141414;stroke:#141440"
         id="path4571" />
      <path
         d="m 44.896528,101.76822 h 0.895725 v -0.22393 h 0.223931 v -0.22393 h 0.447863 v 0.44786 h -0.223932 v 0.22393 h -0.223931 v 0.22393 h -1.343587 v -0.22393 h -0.223931 v -0.22393 h -0.223931 v -2.239309 h 0.223931 V 99.30498 h 0.223931 v -0.223932 h 1.343587 v 0.223932 h 0.223931 v 0.223931 h 0.223932 v 0.447862 h -0.447863 v -0.223931 h -0.223931 v -0.223931 h -0.895725 v 0.223931 h -0.223931 v 1.791448 h 0.223931 z"
         style="display:inline;fill:#141414;stroke:#141440"
         id="path4573" />
      <path
         d="m 47.135842,101.32036 h -0.223931 v -2.239312 h 0.447862 v 2.015382 h 0.223931 v 0.22393 h 0.223931 v 0.22393 h 0.447863 v -0.22393 h 0.223931 v -0.22393 h 0.223931 v -2.015382 h 0.447862 v 2.239312 h -0.223931 v 0.22393 H 48.70336 v 0.22393 h -0.223931 v 0.22393 h -0.223931 v 0.22393 h -0.447863 v -0.22393 h -0.223931 v -0.22393 h -0.223931 v -0.22393 h -0.223931 z"
         style="display:inline;fill:#141414;stroke:#141440"
         id="path4575" />
      <path
         d="m 52.734121,99.528911 v 0.895729 h 1.119656 v -0.22394 h 0.223931 v -0.447858 h -0.223931 v -0.223931 z m 0.223931,1.343589 h -0.223931 v 1.34358 h -0.447863 v -3.135032 h 1.79145 v 0.223932 h 0.223931 v 0.223931 h 0.223931 v 0.895729 h -0.223931 v 0.22393 h -0.223931 v 0.22393 h -0.447863 v 0.22393 h 0.223932 v 0.22393 h 0.223931 v 0.22393 h 0.223931 v 0.22393 h 0.223931 v 0.44786 h -0.447862 v -0.22393 h -0.223931 v -0.22393 h -0.223932 v -0.22393 h -0.223931 v -0.22393 h -0.223931 v -0.22393 h -0.223931 z"
         style="display:inline;fill:#141414;stroke:#141440"
         id="path4577" />
      <path
         d="m 55.645224,101.76822 h 0.895724 v -0.22393 h 0.223932 v -0.44786 h -0.223932 v -0.22393 h -0.895724 v 0.22393 h -0.223931 v 0.44786 h 0.223931 z m -0.223931,0.44786 v -0.22393 h -0.223931 v -0.22393 H 54.97343 v -0.89572 h 0.223932 v -0.22393 h 0.223931 v -0.22393 h 1.119655 v 0.22393 h 0.223932 v -0.44787 h -0.223932 v -0.223927 h -1.119655 v -0.447862 h 1.343587 v 0.223931 h 0.223931 v 0.223931 h 0.223931 v 2.239307 H 56.76488 v -0.22393 h -0.223932 v 0.22393 z"
         style="display:inline;fill:#141414;stroke:#141440"
         id="path4579" />
      <path
         d="m 59.452055,101.54429 v -0.22393 h 0.447863 v 0.44786 h -0.223931 v 0.22393 h -0.223932 v 0.22393 h -1.343587 v -0.22393 h -0.223931 v -0.22393 h -0.223931 v -1.56752 h 0.223931 v -0.223927 h 0.223931 v -0.223931 h 1.343587 v 0.223931 h 0.223932 v 0.223927 h 0.223931 v 0.44787 h -0.447863 v -0.22393 H 59.228124 V 100.2007 H 58.3324 v 0.22394 h -0.223932 v 1.11965 H 58.3324 v 0.22393 h 0.895724 v -0.22393 z"
         style="display:inline;fill:#141414;stroke:#141440"
         id="path4581" />
      <path
         d="m 60.795644,101.76822 v 0.44786 h -0.447862 v -3.135032 h 0.447862 v 2.015382 h 0.223931 v -0.22393 h 0.223932 v -0.22393 h 0.223931 v -0.22393 h 0.223931 V 100.2007 H 61.9153 v -0.223927 h 0.223931 v -0.223931 h 0.447862 v 0.447858 h -0.223931 v 0.22394 h -0.223931 v 0.22393 H 61.9153 v 0.22393 h -0.223931 v 0.22393 H 61.9153 v 0.22393 h 0.223931 v 0.22393 h 0.223931 v 0.22393 h 0.223931 v 0.44786 h -0.447862 v -0.22393 H 61.9153 v -0.22393 h -0.223931 v -0.22393 h -0.223931 v -0.22393 h -0.223931 v 0.22393 h -0.223932 v 0.22393 z"
         style="display:inline;fill:#141414;stroke:#141440"
         id="path4583" />
      <path
         d="m 66.169988,102.21608 h -0.447862 v -3.135032 h 0.447862 v 0.447863 h 0.223931 v 0.223931 h 0.223931 v 0.223931 h 0.447863 v -0.223931 h 0.223931 v -0.223931 h 0.223931 v -0.447863 h 0.447862 v 3.135032 h -0.447862 v -2.01538 h -0.223931 v 0.22394 h -0.223931 v 0.44786 H 66.61785 v -0.44786 h -0.223931 v -0.22394 h -0.223931 z"
         style="display:inline;fill:#141414;stroke:#141440"
         id="path4585" />
      <path
         d="m 69.081095,101.76822 h 0.895725 v -0.22393 h 0.223931 v -1.11965 H 69.97682 v -0.22394 h -0.895725 v 0.22394 h -0.223931 v 1.11965 h 0.223931 z m -0.223931,0.44786 v -0.22393 h -0.223931 v -0.22393 h -0.223931 v -1.56752 h 0.223931 v -0.223927 h 0.223931 v -0.223931 h 1.343587 v 0.223931 h 0.223931 v 0.223927 h 0.223931 v 1.56752 h -0.223931 v 0.22393 h -0.223931 v 0.22393 z"
         style="display:inline;fill:#141414;stroke:#141440"
         id="path4587" />
      <path
         d="m 72.887927,100.2007 v -1.119652 h 0.447862 v 3.135032 h -0.447862 v -0.44786 h -0.223932 v 0.22393 h -0.223931 v 0.22393 h -0.671793 v -0.22393 H 71.54434 v -0.22393 h -0.223932 v -0.22393 h -0.223931 v -1.11965 h 0.223931 v -0.22394 h 0.223932 v -0.223927 h 0.223931 v -0.223931 h 0.671793 v 0.223931 h 0.223931 v 0.223927 z m -1.119656,1.34359 h 0.223931 v 0.22393 h 0.223931 v -0.22393 h 0.223931 v -0.22393 h 0.223931 v -0.67179 h -0.223931 v -0.22393 h -0.223931 v -0.22394 h -0.223931 v 0.22394 h -0.223931 v 0.22393 H 71.54434 v 0.67179 h 0.223931 z"
         style="display:inline;fill:#141414;stroke:#141440"
         id="path4589" />
      <path
         d="m 73.783649,99.752842 h 0.447863 v 1.791448 h 0.223931 v 0.22393 h 0.895724 v -0.22393 h 0.223931 v -1.791448 h 0.447863 v 2.015378 H 75.79903 v 0.22393 h -0.223932 v 0.22393 h -1.343586 v -0.22393 H 74.00758 v -0.22393 h -0.223931 z"
         style="display:inline;fill:#141414;stroke:#141440"
         id="path4591" />
      <path
         d="m 77.814408,99.081048 v 3.135032 h -0.447862 v -3.135032 z"
         style="display:inline;fill:#141414;stroke:#141440"
         id="path4593" />
      <path
         d="m 79.605855,100.42464 v 0.22393 h 1.343587 v -0.22393 h -0.223931 v -0.22394 h -0.895724 v 0.22394 z m 1.79145,1.11965 v 0.22393 h -0.223932 v 0.22393 h -0.223931 v 0.22393 h -1.343587 v -0.22393 h -0.223931 v -0.22393 h -0.223931 v -1.56752 h 0.223931 v -0.223927 h 0.223931 v -0.223931 h 1.343587 v 0.223931 h 0.223931 v 0.223927 h 0.223932 v 0.6718 h -0.223932 v 0.22393 h -1.567518 v 0.44786 h 0.223932 v 0.22393 h 0.895724 v -0.22393 z"
         style="display:inline;fill:#141414;stroke:#141440"
         id="path4595" />
      <path
         d="m 82.069104,101.76822 h -0.223931 v -0.44786 h 0.447862 v 0.22393 h 0.223931 v 0.22393 h 0.895725 v -0.44786 h -0.447863 v -0.22393 h -0.447862 v -0.22393 h -0.447862 v -0.22393 h -0.223931 v -0.44787 h 0.223931 v -0.223927 h 0.223931 v -0.223931 h 1.343587 v 0.223931 h 0.223931 v 0.223927 h 0.223931 v 0.44787 h -0.447862 v -0.22393 h -0.223931 v -0.22394 h -0.895725 v 0.44787 h 0.671794 v 0.22393 h 0.447862 v 0.22393 h 0.223931 v 0.22393 h 0.223931 v 0.44786 h -0.223931 v 0.22393 h -0.223931 v 0.22393 h -1.343587 v -0.22393 h -0.223931 z"
         style="display:inline;fill:#141414;stroke:#141440"
         id="path4597" />
      <path
         d="m 87.89131,101.76822 h 0.895725 v -0.22393 h 0.223931 v -0.22393 h 0.447862 v 0.44786 h -0.223931 v 0.22393 h -0.223931 v 0.22393 h -1.343587 v -0.22393 h -0.223931 v -0.22393 h -0.223931 v -2.239309 h 0.223931 V 99.30498 h 0.223931 v -0.223932 h 1.343587 v 0.223932 h 0.223931 v 0.223931 h 0.223931 v 0.447862 H 89.010966 V 99.752842 H 88.787035 V 99.528911 H 87.89131 v 0.223931 h -0.223931 v 1.791448 h 0.223931 z"
         style="display:inline;fill:#141414;stroke:#141440"
         id="path4599" />
      <path
         d="m 90.57849,101.76822 h 0.895724 v -0.22393 h 0.223931 v -1.11965 H 91.474214 V 100.2007 H 90.57849 v 0.22394 h -0.223932 v 1.11965 h 0.223932 z m -0.223932,0.44786 v -0.22393 h -0.223931 v -0.22393 h -0.223931 v -1.56752 h 0.223931 v -0.223927 h 0.223931 v -0.223931 h 1.343587 v 0.223931 h 0.223931 v 0.223927 h 0.223932 v 1.56752 h -0.223932 v 0.22393 h -0.223931 v 0.22393 z"
         style="display:inline;fill:#141414;stroke:#141440"
         id="path4601" />
      <path
         d="m 93.04173,100.42464 v 1.79144 h -0.447862 v -2.463238 h 0.447862 v 0.223931 h 0.223931 v -0.223931 h 1.119656 v 0.223931 h 0.223931 v 0.223927 h 0.223932 v 2.01538 h -0.447863 v -1.79144 h -0.223931 v -0.22394 h -0.223931 v 2.01538 h -0.447862 v -2.01538 h -0.223932 v 0.22394 z"
         style="display:inline;fill:#141414;stroke:#141440"
         id="path4603" />
      <path
         d="m 96.624627,99.30498 v 0.447862 H 96.176765 V 99.30498 Z m 0.223931,2.46324 h 0.223931 v 0.44786 h -0.447862 v -0.22393 h -0.223931 v -0.22393 h -0.223931 v -1.11965 h -0.447863 v -0.44787 h 0.895725 v 1.34359 h 0.223931 z"
         style="display:inline;fill:#141414;stroke:#141440"
         id="path4605" />
      <path
         d="m 98.416074,100.42464 v 1.79144 h -0.447862 v -2.463238 h 0.447862 v 0.223931 h 0.223931 v -0.223931 h 1.119656 v 0.223931 h 0.223931 v 0.223927 h 0.223928 v 2.01538 h -0.447859 v -1.79144 H 99.53573 v -0.22394 h -0.895725 v 0.22394 z"
         style="display:inline;fill:#141414;stroke:#141440"
         id="path4607" />
      <path
         d="m 102.44683,100.42464 v -0.22394 h -0.22393 v -0.223927 h -0.89572 v 0.223927 h -0.22393 v 0.22394 h 0.22393 v 0.22393 h 0.89572 v -0.22393 z m -1.34358,1.56751 h -0.22394 v -0.44786 h 0.44787 v 0.22393 h 0.89572 v -0.22393 h 0.22393 v -0.67179 h -0.22393 v 0.22393 h -1.11965 v -0.22393 h -0.22394 v -0.22393 h -0.22393 v -0.671797 h 0.22393 v -0.223931 h 0.22394 v -0.223931 h 1.34358 v 0.223931 h 0.22393 v 0.223931 h 0.22394 v 1.791447 h -0.22394 v 0.22393 h -0.22393 v 0.22393 h -1.34358 z"
         style="display:inline;fill:#141414;stroke:#141440"
         id="path4609" />
      <path
         d="m 108.04512,99.528911 h 0.22393 v 0.447862 h -0.44787 v -0.223931 h -0.22393 v -0.223931 h -0.89572 v 0.223931 h -0.22393 v 0.447858 h 0.22393 v 0.22394 h 1.11965 v 0.22393 h 0.22394 v 0.22393 h 0.22393 v 0.89572 h -0.22393 v 0.22393 h -0.22394 v 0.22393 h -1.34358 v -0.22393 h -0.22393 v -0.22393 h -0.22393 v -0.44786 h 0.44786 v 0.22393 h 0.22393 v 0.22393 h 0.89572 v -0.22393 h 0.22393 v -0.44786 h -0.22393 v -0.22393 h -1.11965 v -0.22393 h -0.22393 v -0.22393 h -0.22393 v -0.895729 h 0.22393 V 99.30498 h 0.22393 v -0.223932 h 1.34358 v 0.223932 h 0.22394 z"
         style="display:inline;fill:#141414;stroke:#141440"
         id="path4611" />
      <path
         d="m 109.3887,101.76822 h 0.89573 v -0.22393 h 0.22393 v -1.11965 h -0.22393 v -0.22394 h -0.89573 v 0.22394 h -0.22393 v 1.11965 h 0.22393 z m -0.22393,0.44786 v -0.22393 h -0.22393 v -0.22393 h -0.22393 v -1.56752 h 0.22393 v -0.223927 h 0.22393 v -0.223931 h 1.34359 v 0.223931 h 0.22393 v 0.223927 h 0.22393 v 1.56752 h -0.22393 v 0.22393 h -0.22393 v 0.22393 z"
         style="display:inline;fill:#141414;stroke:#141440"
         id="path4613" />
      <path
         d="m 112.07588,101.76822 h 0.89572 v -0.22393 h 0.22394 v -1.11965 h -0.22394 v -0.22394 h -0.89572 v 0.22394 h -0.22393 v 1.11965 h 0.22393 z m -0.22393,0.44786 v -0.22393 h -0.22393 v -0.22393 h -0.22393 v -1.56752 h 0.22393 v -0.223927 h 0.22393 v -0.223931 h 1.34359 v 0.223931 h 0.22393 v 0.223927 h 0.22393 v 1.56752 h -0.22393 v 0.22393 h -0.22393 v 0.22393 z"
         style="display:inline;fill:#141414;stroke:#141440"
         id="path4615" />
      <path
         d="m 114.53912,100.42464 v 1.79144 h -0.44786 v -2.463238 h 0.44786 v 0.223931 h 0.22393 v -0.223931 h 1.11966 v 0.223931 h 0.22393 v 0.223927 h 0.22393 v 2.01538 h -0.44786 v -1.79144 h -0.22393 v -0.22394 h -0.89573 v 0.22394 z"
         style="display:inline;fill:#141414;stroke:#141440"
         id="path4617" />
    </g>
    <text
       xml:space="preserve"
       style="font-size:7.7611px;font-family:'VCR OSD Mono';-inkscape-font-specification:'VCR OSD Mono, Normal';text-align:center;text-anchor:middle;display:inline;fill:#c0c0c0;fill-opacity:1;stroke:#c0c0c0;stroke-width:0;stroke-miterlimit:8.6;stroke-dasharray:none;stroke-dashoffset:0;stroke-opacity:1"
       x="78.101326"
       y="89.207481"
       id="text2088"><tspan
         sodipodi:role="line"
         id="tspan2086"
         style="display:inline;stroke-width:0"
         x="78.101326"
         y="89.207481"></tspan></text>
  </g>
</svg>
