<?xml version="1.0" encoding="UTF-8" standalone="no"?>
<!-- Created with Inkscape (http://www.inkscape.org/) -->

<svg
   width="20.32mm"
   height="128.5mm"
   viewBox="0 0 20.32 128.5"
   version="1.1"
   id="svg5"
   inkscape:version="1.2.2 (732a01da63, 2022-12-09)"
   sodipodi:docname="3i_9o.svg"
   xml:space="preserve"
   xmlns:inkscape="http://www.inkscape.org/namespaces/inkscape"
   xmlns:sodipodi="http://sodipodi.sourceforge.net/DTD/sodipodi-0.dtd"
   xmlns="http://www.w3.org/2000/svg"
   xmlns:svg="http://www.w3.org/2000/svg"><sodipodi:namedview
     id="namedview7"
     pagecolor="#ffffff"
     bordercolor="#000000"
     borderopacity="0.25"
     inkscape:showpageshadow="2"
     inkscape:pageopacity="0.0"
     inkscape:pagecheckerboard="0"
     inkscape:deskcolor="#d1d1d1"
     inkscape:document-units="mm"
     showgrid="false"
     inkscape:zoom="1.4770343"
     inkscape:cx="-93.768983"
     inkscape:cy="229.51397"
     inkscape:window-width="1920"
     inkscape:window-height="1009"
     inkscape:window-x="1912"
     inkscape:window-y="-8"
     inkscape:window-maximized="1"
     inkscape:current-layer="g6" /><defs
     id="defs2"><clipPath
       id="clip89"><rect
         y="0"
         x="0"
         width="18"
         height="19"
         id="rect4864" /></clipPath><clipPath
       id="clip90"><path
         inkscape:connector-curvature="0"
         d="m 0.898438,0.128906 h 16.25 v 17.882813 h -16.25 z m 0,0"
         id="path4861" /></clipPath><mask
       id="mask44"><g
         style="filter:url(#alpha)"
         id="g4858"
         transform="matrix(0.26458333,0,0,0.26458333,89.358789,128.57765)"><rect
           x="0"
           y="0"
           width="3052.8701"
           height="3351.5"
           style="fill:#000000;fill-opacity:0.14999402;stroke:none"
           id="rect4856" /></g></mask><filter
       id="alpha"
       filterUnits="objectBoundingBox"
       x="0"
       y="0"
       width="1"
       height="1"><feColorMatrix
         type="matrix"
         in="SourceGraphic"
         values="0 0 0 0 1 0 0 0 0 1 0 0 0 0 1 0 0 0 1 0"
         id="feColorMatrix4149" /></filter><clipPath
       id="clipPath17821"><rect
         y="0"
         x="0"
         width="18"
         height="19"
         id="rect17819" /></clipPath><clipPath
       id="clipPath17825"><path
         inkscape:connector-curvature="0"
         d="m 0.898438,0.128906 h 16.25 v 17.882813 h -16.25 z m 0,0"
         id="path17823" /></clipPath><clipPath
       id="clip87"><rect
         y="0"
         x="0"
         width="24"
         height="26"
         id="rect4848" /></clipPath><clipPath
       id="clip88"><path
         inkscape:connector-curvature="0"
         d="m 0.683594,0.921875 h 22.679687 v 24.9375 H 0.683594 Z m 0,0"
         id="path4845" /></clipPath><mask
       id="mask43"><g
         style="filter:url(#alpha)"
         id="g4842"
         transform="matrix(0.26458333,0,0,0.26458333,89.358789,128.57765)"><rect
           x="0"
           y="0"
           width="3052.8701"
           height="3351.5"
           style="fill:#000000;fill-opacity:0.14999402;stroke:none"
           id="rect4840" /></g></mask><filter
       id="filter17836"
       filterUnits="objectBoundingBox"
       x="0"
       y="0"
       width="1"
       height="1"><feColorMatrix
         type="matrix"
         in="SourceGraphic"
         values="0 0 0 0 1 0 0 0 0 1 0 0 0 0 1 0 0 0 1 0"
         id="feColorMatrix17834" /></filter><clipPath
       id="clipPath17840"><rect
         y="0"
         x="0"
         width="24"
         height="26"
         id="rect17838" /></clipPath><clipPath
       id="clipPath17844"><path
         inkscape:connector-curvature="0"
         d="m 0.683594,0.921875 h 22.679687 v 24.9375 H 0.683594 Z m 0,0"
         id="path17842" /></clipPath><clipPath
       id="clip95"><rect
         y="0"
         x="0"
         width="18"
         height="18"
         id="rect4912" /></clipPath><clipPath
       id="clip96"><path
         inkscape:connector-curvature="0"
         d="M 0.140625,0.140625 H 17.199219 V 17.199219 H 0.140625 Z m 0,0"
         id="path4909" /></clipPath><mask
       id="mask47"><g
         style="filter:url(#alpha-3)"
         id="g4906"
         transform="matrix(0.26458333,0,0,0.26458333,88.611154,119.19859)"><rect
           x="0"
           y="0"
           width="3052.8701"
           height="3351.5"
           style="fill:#000000;fill-opacity:0.33000201;stroke:none"
           id="rect4904" /></g></mask><filter
       id="alpha-3"
       filterUnits="objectBoundingBox"
       x="0"
       y="0"
       width="1"
       height="1"><feColorMatrix
         type="matrix"
         in="SourceGraphic"
         values="0 0 0 0 1 0 0 0 0 1 0 0 0 0 1 0 0 0 1 0"
         id="feColorMatrix4149-6" /></filter><clipPath
       id="clipPath18541"><rect
         y="0"
         x="0"
         width="18"
         height="18"
         id="rect18539" /></clipPath><clipPath
       id="clipPath18545"><path
         inkscape:connector-curvature="0"
         d="M 0.140625,0.140625 H 17.199219 V 17.199219 H 0.140625 Z m 0,0"
         id="path18543" /></clipPath><clipPath
       id="clip93"><rect
         y="0"
         x="0"
         width="22"
         height="24"
         id="rect4896" /></clipPath><clipPath
       id="clip94"><path
         inkscape:connector-curvature="0"
         d="M 0.0390625,0.0390625 H 21.300781 V 23.421875 H 0.0390625 Z m 0,0"
         id="path4893" /></clipPath><mask
       id="mask46"><g
         style="filter:url(#alpha-3)"
         id="g4890"
         transform="matrix(0.26458333,0,0,0.26458333,88.611154,119.19859)"><rect
           x="0"
           y="0"
           width="3052.8701"
           height="3351.5"
           style="fill:#000000;fill-opacity:0.14999402;stroke:none"
           id="rect4888" /></g></mask><filter
       id="filter18556"
       filterUnits="objectBoundingBox"
       x="0"
       y="0"
       width="1"
       height="1"><feColorMatrix
         type="matrix"
         in="SourceGraphic"
         values="0 0 0 0 1 0 0 0 0 1 0 0 0 0 1 0 0 0 1 0"
         id="feColorMatrix18554" /></filter><clipPath
       id="clipPath18560"><rect
         y="0"
         x="0"
         width="22"
         height="24"
         id="rect18558" /></clipPath><clipPath
       id="clipPath18564"><path
         inkscape:connector-curvature="0"
         d="M 0.0390625,0.0390625 H 21.300781 V 23.421875 H 0.0390625 Z m 0,0"
         id="path18562" /></clipPath><clipPath
       id="clip91"><rect
         y="0"
         x="0"
         width="29"
         height="32"
         id="rect4880" /></clipPath><clipPath
       id="clip92"><path
         inkscape:connector-curvature="0"
         d="M 0.507812,0.5 H 28.855469 V 31.679688 H 0.507812 Z m 0,0"
         id="path4877" /></clipPath><mask
       id="mask45"><g
         style="filter:url(#alpha-3)"
         id="g4874"
         transform="matrix(0.26458333,0,0,0.26458333,88.611154,119.19859)"><rect
           x="0"
           y="0"
           width="3052.8701"
           height="3351.5"
           style="fill:#000000;fill-opacity:0.14999402;stroke:none"
           id="rect4872" /></g></mask><filter
       id="filter18575"
       filterUnits="objectBoundingBox"
       x="0"
       y="0"
       width="1"
       height="1"><feColorMatrix
         type="matrix"
         in="SourceGraphic"
         values="0 0 0 0 1 0 0 0 0 1 0 0 0 0 1 0 0 0 1 0"
         id="feColorMatrix18573" /></filter><clipPath
       id="clipPath18579"><rect
         y="0"
         x="0"
         width="29"
         height="32"
         id="rect18577" /></clipPath><clipPath
       id="clipPath18583"><path
         inkscape:connector-curvature="0"
         d="M 0.507812,0.5 H 28.855469 V 31.679688 H 0.507812 Z m 0,0"
         id="path18581" /></clipPath><clipPath
       id="clip202"><rect
         y="0"
         x="0"
         width="18"
         height="18"
         id="rect5795" /></clipPath><clipPath
       id="clip203"><path
         inkscape:connector-curvature="0"
         d="M 0.855469,0.140625 H 17.914062 V 17.199219 H 0.855469 Z m 0,0"
         id="path5792" /></clipPath><mask
       id="mask104"><g
         style="filter:url(#alpha-7)"
         id="g5789"
         transform="matrix(0.26458333,0,0,0.26458333,74.416306,97.613551)"><rect
           x="0"
           y="0"
           width="3052.8701"
           height="3351.5"
           style="fill:#000000;fill-opacity:0.33000201;stroke:none"
           id="rect5787" /></g></mask><filter
       id="alpha-7"
       filterUnits="objectBoundingBox"
       x="0"
       y="0"
       width="1"
       height="1"><feColorMatrix
         type="matrix"
         in="SourceGraphic"
         values="0 0 0 0 1 0 0 0 0 1 0 0 0 0 1 0 0 0 1 0"
         id="feColorMatrix4149-5" /></filter><clipPath
       id="clipPath18765"><rect
         y="0"
         x="0"
         width="18"
         height="18"
         id="rect18763" /></clipPath><clipPath
       id="clipPath18769"><path
         inkscape:connector-curvature="0"
         d="M 0.855469,0.140625 H 17.914062 V 17.199219 H 0.855469 Z m 0,0"
         id="path18767" /></clipPath><symbol
       id="LeftAndDownArrow_Inv"><title
         id="title2282">Left and Down Arrow</title><rect
         x="0.5"
         y="0.5"
         width="71"
         height="71"
         ry="6"
         style="stroke:#ffffff"
         id="rect2284" /><path
         d="m 16.125,55.875 v -32 l 11,-11 v 24 l 23,-23 8,8 -23,23 h 24 l -11,11 z"
         style="fill:#ffffff;stroke:none"
         id="path2286" /></symbol></defs><g
     inkscape:label="Layer 1"
     inkscape:groupmode="layer"
     id="layer1"
     style="display:inline" /><g
     inkscape:label="panel"
     inkscape:groupmode="layer"
     id="g6"
     style="display:inline;fill:#000000"><rect
       style="fill:#000000;fill-opacity:0.962121;stroke-width:0.264583"
       id="rect179"
       width="20.32"
       height="128.5"
       x="-1.110223e-16"
       y="-0.031666271" /><rect
       style="fill:#999999;fill-opacity:0.962121;stroke-width:0.264583"
       id="rect11176"
       width="11.132104"
       height="10.227223"
       x="0.10833374"
       y="11.779181" /><path
       style="fill:#212121;fill-opacity:0;stroke:#777777;stroke-width:0.565;stroke-linecap:butt;stroke-linejoin:round;stroke-miterlimit:8.6;stroke-dasharray:0.565, 0.565;stroke-dashoffset:1.0961;stroke-opacity:1"
       d="M 5.6624995,48.992461 V 43.013947 L 10.454266,39.811973"
       id="path8709" /><path
       style="display:inline;fill:#212121;fill-opacity:0;stroke:#777777;stroke-width:0.565;stroke-linecap:butt;stroke-linejoin:round;stroke-miterlimit:8.6;stroke-dasharray:0.565, 0.565;stroke-dashoffset:1.0961;stroke-opacity:1"
       d="M 5.6624996,86.205373 V 80.226859 L 10.454266,77.024885"
       id="path8709-3" /><rect
       style="display:inline;fill:#999999;fill-opacity:0.962121;stroke-width:0.264583"
       id="rect11176-8"
       width="11.132104"
       height="10.227223"
       x="0.108334"
       y="48.986794" /><rect
       style="display:inline;fill:#999999;fill-opacity:0.962121;stroke-width:0.264583"
       id="rect11176-2"
       width="11.132104"
       height="10.227223"
       x="0.10833418"
       y="86.194405" /><text
       xml:space="preserve"
       style="font-size:2.46944px;font-family:'VCR OSD Mono';-inkscape-font-specification:'VCR OSD Mono';text-align:center;text-anchor:middle;fill:#212121;fill-opacity:0;stroke:#777777;stroke-width:0.564999;stroke-linejoin:round;stroke-miterlimit:8.6;stroke-dasharray:0.564999, 0.564999;stroke-dashoffset:1.0961"
       x="6.3965869"
       y="5.383266"
       id="text628"><tspan
         sodipodi:role="line"
         id="tspan626"
         style="stroke-width:0.565"
         x="6.3965869"
         y="5.383266" /></text><text
       xml:space="preserve"
       style="font-size:2.46944px;font-family:'VCR OSD Mono';-inkscape-font-specification:'VCR OSD Mono';text-align:center;text-anchor:middle;fill:#212121;fill-opacity:0;stroke:#777777;stroke-width:0.564999;stroke-linejoin:round;stroke-miterlimit:8.6;stroke-dasharray:0.564999, 0.564999;stroke-dashoffset:1.0961"
       x="2.216639"
       y="7.5365725"
       id="text632"><tspan
         sodipodi:role="line"
         id="tspan630"
         style="stroke-width:0.565"
         x="2.216639"
         y="7.5365725"></tspan></text><g
       aria-label="3i/9o"
       id="text2906"
       style="font-size:4.93889px;font-family:'VCR OSD Mono';-inkscape-font-specification:'VCR OSD Mono';text-align:center;text-anchor:middle;fill:#939393;stroke:#777777;stroke-width:0;stroke-linejoin:round;stroke-miterlimit:8.6"><path
         d="M 3.4076112,8.5989718 H 3.1664545 V 8.1166584 H 3.6487679 V 8.3578151 H 3.8899247 V 8.5989718 H 4.8545516 V 8.3578151 H 5.0957084 V 7.8755016 H 4.8545516 V 7.6343449 H 4.1310814 V 7.1520314 H 4.8545516 V 6.9108747 H 5.0957084 V 6.4285612 H 4.8545516 V 6.1874045 H 3.8899247 V 6.4285612 H 3.6487679 V 6.6697179 H 3.1664545 V 6.1874045 H 3.4076112 V 5.9462477 H 3.6487679 V 5.705091 H 5.0957084 V 5.9462477 H 5.3368651 V 6.1874045 H 5.5780218 V 7.1520314 H 5.3368651 V 7.6343449 H 5.5780218 V 8.5989718 H 5.3368651 V 8.8401286 H 5.0957084 V 9.0812853 H 3.6487679 V 8.8401286 H 3.4076112 Z"
         id="path3317" /><path
         d="M 7.5072757,5.9462477 V 6.4285612 H 7.0249623 V 5.9462477 Z M 7.7484325,8.5989718 H 7.9895892 V 9.0812853 H 7.5072757 V 8.8401286 H 7.266119 V 8.5989718 H 7.0249623 V 7.3931882 H 6.5426488 V 6.9108747 h 0.9646269 v 1.4469404 h 0.2411568 z"
         id="path3319" /><path
         d="m 10.88347,5.705091 h 0.482314 V 6.6697179 H 11.124627 V 6.9108747 H 10.88347 V 7.1520314 H 10.642313 V 7.3931882 H 10.401157 V 7.6343449 H 10.16 V 7.8755016 H 9.9188431 V 8.1166584 H 9.6776864 V 8.3578151 H 9.4365296 V 9.0812853 H 8.9542162 V 8.1166584 H 9.1953729 V 7.8755016 H 9.4365296 V 7.6343449 H 9.6776864 V 7.3931882 H 9.9188431 V 7.1520314 H 10.16 V 6.9108747 h 0.241157 V 6.6697179 h 0.241156 V 6.4285612 h 0.241157 z"
         id="path3321" /><path
         d="M 12.089254,8.5989718 H 11.848097 V 8.1166584 h 0.482313 v 0.2411567 h 0.241157 v 0.2411567 h 0.964627 V 8.3578151 h 0.241157 V 7.6343449 H 12.33041 V 7.3931882 H 12.089254 V 7.1520314 H 11.848097 V 6.1874045 h 0.241157 V 5.9462477 H 12.33041 V 5.705091 h 1.446941 v 0.2411567 h 0.241157 v 0.2411568 h 0.241156 V 8.5989718 H 14.018508 V 8.8401286 H 13.777351 V 9.0812853 H 12.33041 V 8.8401286 H 12.089254 Z M 13.777351,7.1520314 V 6.4285612 H 13.536194 V 6.1874045 H 12.571567 V 6.4285612 H 12.33041 v 0.484725 h 0.241157 v 0.2387452 z"
         id="path3323" /><path
         d="m 15.465448,8.5989718 h 0.964627 V 8.3578151 h 0.241157 V 7.1520314 H 16.430075 V 6.9108747 h -0.964627 v 0.2411567 h -0.241157 v 1.2057837 h 0.241157 z M 15.224291,9.0812853 V 8.8401286 H 14.983135 V 8.5989718 H 14.741978 V 6.9108747 h 0.241157 V 6.6697179 h 0.241156 V 6.4285612 h 1.446941 v 0.2411567 h 0.241156 v 0.2411568 h 0.241157 v 1.6880971 h -0.241157 v 0.2411568 h -0.241156 v 0.2411567 z"
         id="path3325" /></g></g><g
     inkscape:groupmode="layer"
     id="layer4"
     inkscape:label="components"
     style="display:none"><circle
       style="display:inline;fill:#00ff00;fill-opacity:1;fill-rule:evenodd;stroke-width:0.232253"
       id="path5080-4"
       cx="5.663022"
       cy="91.322044"
       r="1.5"
       inkscape:label="input3" /><circle
       style="display:inline;fill:#00ff00;fill-opacity:1;fill-rule:evenodd;stroke-width:0.232253"
       id="path5080-3"
       cx="5.663022"
       cy="54.114433"
       r="1.5"
       inkscape:label="input2" /><circle
       style="fill:#00ff00;fill-opacity:1;fill-rule:evenodd;stroke-width:0.232253"
       id="path5080"
       cx="5.663022"
       cy="16.90682"
       r="1.5"
       inkscape:label="input1" /><circle
       style="fill:#0000ff;fill-opacity:1;fill-rule:evenodd;stroke-width:0.232253"
       id="path5080-6"
       cx="14.686772"
       cy="26.707396"
       r="1.5"
       inkscape:label="output1" /><circle
       style="fill:#0000ff;fill-opacity:1;fill-rule:evenodd;stroke-width:0.232253"
       id="path5080-6-2"
       cx="14.707549"
       cy="37.231369"
       r="1.5"
       inkscape:label="output3" /><circle
       style="fill:#0000ff;fill-opacity:1;fill-rule:evenodd;stroke-width:0.232253"
       id="path5080-6-3"
       cx="5.7957578"
       cy="32.014164"
       r="1.5"
       inkscape:label="output2" /><circle
       style="fill:#0000ff;fill-opacity:1;fill-rule:evenodd;stroke-width:0.232253"
       id="path5080-6-6"
       cx="5.7957578"
       cy="69.221779"
       r="1.5"
       inkscape:label="output5" /><circle
       style="fill:#0000ff;fill-opacity:1;fill-rule:evenodd;stroke-width:0.232253"
       id="path5080-6-67"
       cx="14.707549"
       cy="74.43898"
       r="1.5"
       inkscape:label="output6" /><circle
       style="fill:#0000ff;fill-opacity:1;fill-rule:evenodd;stroke-width:0.232253"
       id="path5080-6-5"
       cx="14.686772"
       cy="63.915009"
       r="1.5"
       inkscape:label="output4" /><circle
       style="fill:#0000ff;fill-opacity:1;fill-rule:evenodd;stroke-width:0.232253"
       id="path5080-6-20"
       cx="14.686772"
       cy="101.12262"
       r="1.5"
       inkscape:label="output7" /><circle
       style="fill:#0000ff;fill-opacity:1;fill-rule:evenodd;stroke-width:0.232253"
       id="path5080-6-28"
       cx="5.7957578"
       cy="106.42939"
       r="1.5"
       inkscape:label="output8" /><circle
       style="fill:#0000ff;fill-opacity:1;fill-rule:evenodd;stroke-width:0.232253"
       id="path5080-6-33"
       cx="14.707549"
       cy="111.64659"
       r="1.5"
       inkscape:label="output9" /><circle
       style="fill:#ff00ff;fill-opacity:1;fill-rule:evenodd;stroke-width:0.232253"
       id="path5080-6-20-7"
       cx="14.68677"
       cy="91.322044"
       r="1.5"
       inkscape:label="led3" /><circle
       style="fill:#ff00ff;fill-opacity:1;fill-rule:evenodd;stroke-width:0.232253"
       id="path5080-6-20-7-2"
       cx="14.68677"
       cy="54.114433"
       r="1.5"
       inkscape:label="led2" /><circle
       style="fill:#ff00ff;fill-opacity:1;fill-rule:evenodd;stroke-width:0.232253"
       id="path5080-6-20-7-5"
       cx="14.68677"
       cy="16.906818"
       r="1.5"
       inkscape:label="led1" /></g></svg>
